<svg version="1.1" id="Layer_1" xmlns="http://www.w3.org/2000/svg" x="0" y="0" viewBox="0 0 600 179.2" xml:space="preserve"><style>.st0{fill:#14cdeb}</style><path class="st0" d="M210.6 76.8c-4.7 2.3-8.6 5.5-11.5 9.4l-.9 1.2c-.5 1-.5 2.3 0 3.4.9 2 3.3 2.8 5.2 1.8.4-.2.8-.5 1.1-.8l.6-.9c2.2-2.9 5.2-5.4 8.7-7.1 12.1-5.8 26.7-.7 32.5 11.4 4.4 9.1 2.6 19.6-3.7 26.7l.3-.3-.3.3c-.5.5-1 1.1-1.5 1.6l.7-.7c-11.2 11.1-24.4 6.1-24.4 6.1-8.2-2.9-14.2-8.4-20.1-16.9l-5.2-7.7-.1-.1-.4-.6-4.8-7.2c-1.6-2.2-3.3-4.4-5.1-6.5-4.3-5.3-8.9-9.8-14.5-12.2-8.3-4.2-15.1-3.7-15.1-3.7l.2.1c-4.9 0-9.9 1.1-14.6 3.7-15.5 8.4-21.3 27.8-12.9 43.3s27.8 21.3 43.3 12.9c4.6-2.5 8.3-5.9 11-9.9.3-.4.6-.8.8-1.2.4-1.1.4-2.3-.2-3.4-1-1.9-3.4-2.6-5.3-1.6-.4.2-.8.5-1.1.9l-.6.9c-2.1 3-4.9 5.6-8.4 7.5-11.8 6.4-26.6 2-33-9.8s-2-26.6 9.8-33c1.3-.7 2.6-1.3 3.9-1.7l.5-.3c5.2-1.6 9.8-1 12.4-.4 5.7 1.4 10.5 4.7 14.7 8.8l.7.7c2.3 2.5 4.6 5.3 6.8 8.5l5.2 7.7.1.1.4.6 4.8 7.2c.1.1.2.2.2.3V167c0 2.3 1.8 4.1 4.1 4.1s4.1-1.8 4.1-4.1v-41c3.7 3.9 7.7 7.1 12.4 8.8 2.1.9 4.3 1.7 6.6 2.2h-.1c6.3 1.6 13.5.7 20.1-2.5 15.9-7.8 22.6-26.8 14.9-42.7-7.3-16-26.4-22.7-42.3-15z"/><path class="st0" d="M242.7 121.8l-.8.9c.2-.3.5-.6.8-.9zm75.9-38.7c-6.3-6.3-14-9.4-22.8-9.4s-16.5 3.2-22.7 9.4c-6.3 6.3-9.4 13.9-9.4 22.7 0 8.8 3.2 16.5 9.4 22.7 6.2 6.3 13.9 9.4 22.7 9.4 8 0 15.1-2.6 21-7.8.7-.7 1.1-1.7 1.1-2.8 0-1.2-.3-2.1-1.1-2.9-.8-.8-1.7-1.1-2.9-1.1-1 0-1.9.4-2.7 1-2.1 1.8-4.5 3.2-7 4.1-2.5.9-5.3 1.4-8.3 1.4-2.6 0-5.2-.4-7.7-1.2-2.4-.8-4.7-2-6.7-3.5s-3.8-3.3-5.3-5.4c0 0-3.1-4.3-4.4-10.1H324c1.2 0 2.1-.4 2.9-1.1.8-.7 1.1-1.6 1.1-2.8 0-4.4-.8-8.6-2.3-12.4-1.6-3.7-4-7.2-7.1-10.2zm-46.9 18.7s1.5-6 4.3-10.1c1.5-2.1 3.3-3.9 5.4-5.4 2.1-1.5 4.3-2.6 6.8-3.5 4.9-1.6 10.4-1.6 15.3 0 2.4.8 4.7 2 6.7 3.5s3.8 3.3 5.4 5.4c1.5 2.1 2.7 4.4 3.5 7l1 3.2h-48.4zM119.6 77.4c-.3-.2-.6-.3-.9-.5-3.8-2.1-7.9-3.2-12.4-3.2-3.2 0-6.3.4-9.2 1.5-2.7 1-5.1 2.4-7.3 4.2-.2.1-.3.2-.5.4-2.3 1.9-4.2 4.3-5.7 6.9-1.5 2.7-2.5 5.6-3 8.7v.2l-.1 38.5c0 1.1.3 2 1 2.8.8.8 1.9 1.3 3.1 1.3h.4c.2 0 .3 0 .5-.1.1 0 .3-.1.4-.1.1 0 .3-.1.4-.1.5-.2.9-.5 1.3-.8.8-.7 1.1-1.6 1.2-2.8V99.2c0-2 .3-3.8.9-5.4.8-2.5 2.2-4.9 4.2-6.9.1-.1.2-.2.3-.2 3.5-3.3 7.5-5 12.3-5 3.1 0 5.9 1 8.5 2.5.1 0 .2.1.2.1.6.4 1.3.6 2.1.6 2.3 0 4.1-1.8 4.1-4.1-.1-1.4-.8-2.6-1.8-3.4zm255.4-.1c-.3-.2-.6-.3-.9-.5-3.8-2.1-7.9-3.2-12.4-3.2-3.2 0-6.3.4-9.2 1.5-2.7 1-5.1 2.4-7.3 4.2-.2.1-.3.2-.5.4-2.3 1.9-4.2 4.3-5.7 6.9-1.5 2.7-2.5 5.6-3 8.7v.2l-.1 38.5c0 1.1.3 2 1 2.8.8.8 1.9 1.3 3.1 1.3h.4c.2 0 .3 0 .5-.1.1 0 .3-.1.4-.1.1 0 .3-.1.4-.1.5-.2.9-.5 1.3-.8.8-.7 1.1-1.6 1.2-2.8V99.1c0-2 .3-3.8.9-5.4.8-2.5 2.2-4.9 4.2-6.9.1-.1.2-.2.3-.2 3.5-3.3 7.5-5 12.3-5 3.1 0 5.9 1 8.5 2.5.1 0 .2.1.2.1.6.4 1.3.6 2.1.6 2.3 0 4.1-1.8 4.1-4.1-.1-1.5-.8-2.7-1.8-3.4zm35.8-13.1h-12.3V51.6c0-2.2-1.8-4-4-4s-4 1.8-4 4v12.5h-12.3c-2.2 0-4 1.8-4 4s1.8 4 4 4h12.3V134c0 2.2 1.8 4 4 4s4-1.8 4-4V72.2h12.3c2.2 0 4-1.8 4-4s-1.8-4-4-4zM25.5 76.7C20.8 79 17 82.2 14 86.1l-.9 1.2c-.5 1-.5 2.3 0 3.4.9 2 3.3 2.8 5.2 1.8.4-.2.8-.5 1.1-.8l.6-.9c2.2-2.9 5.2-5.4 8.8-7.1 12.1-5.8 26.7-.7 32.5 11.4 4.7 9.8 2.3 21.1-5.2 28.2-11.1 10.3-23.8 5.5-23.8 5.5-7.5-2.6-13-7.4-18.4-14.6-.5-1.7-2-3-3.9-3-2.3 0-4.1 1.8-4.1 4.1l-.2.1c.1.1.1.2.2.3v51.2c0 2.3 1.8 4.1 4.1 4.1s4.1-1.8 4.1-4.1v-41.1c3.7 3.9 7.7 7.1 12.4 8.9 2.1.9 4.3 1.7 6.6 2.2H33c6.3 1.6 13.5.7 20.1-2.6 15.9-7.8 22.6-26.8 15-42.7C60.6 75.7 41.4 69 25.5 76.7zm30.8 46.6l1.7-1.7c-.6.6-1.2 1.1-1.7 1.7zm438.4.5h-10c-.3 0-.5.1-.6.3-.2.2-.3.4-.3.6 0 .3.1.5.3.6.2.2.4.3.6.3h4v11.9c0 .3.1.5.3.7.2.2.4.3.7.3.3 0 .5-.1.7-.3.2-.2.3-.4.3-.7v-11.9h4c.3 0 .5-.1.6-.3.2-.2.3-.4.3-.6 0-.3-.1-.5-.3-.6-.1-.3-.3-.3-.6-.3zm16.7 0c-.4 0-.7.2-.9.5l-5.4 11.1-5.6-11.1c-.2-.3-.5-.5-.9-.5-.3 0-.5.1-.7.3-.2.2-.3.4-.3.7v12.7c0 .3.1.5.3.7.2.2.4.3.7.3.3 0 .5-.1.7-.3.2-.2.3-.4.3-.7v-9.1l4.5 9c.2.4.5.6.9.6.3 0 .6-.2.8-.5l4.5-9.2v9.3c0 .3.1.5.3.7.2.2.4.3.7.3.3 0 .5-.1.7-.3.2-.2.3-.4.3-.7v-12.7c0-.3-.1-.5-.3-.7-.1-.4-.3-.4-.6-.4zm-41 14.4V78.8c0-1-.3-1.8-1-2.5s-1.5-1-2.5-1-1.8.3-2.5 1-1 1.5-1 2.5v32.6c0 2.7-.5 5.2-1.5 7.6-1 2.3-2.4 4.4-4.2 6.2-1.8 1.8-3.9 3.2-6.2 4.2-4.6 2-10.5 2-15.2 0-2.3-1-4.4-2.4-6.2-4.2-1.8-1.8-3.2-3.8-4.2-6.2-1-2.4-1.5-4.9-1.5-7.6V78.7c0-1-.3-1.8-1-2.5s-1.5-1-2.5-1-1.8.3-2.5 1-1 1.5-1 2.5v32.6c0 3.6.7 7.1 2.1 10.3 1.4 3.2 3.3 6.1 5.7 8.5 2.4 2.4 5.3 4.3 8.5 5.7 3.2 1.4 6.7 2.1 10.3 2.1 3.1 0 5.9-.4 8.5-1.2 2.6-.8 5-2.2 7.4-4l3.5-2.7.1 8.1v3.2l-.2 3.5c-.9 10.4-9.5 18.7-20.1 18.7-6 0-11.4-2.6-15.1-6.7-.7-.7-1.6-1.2-2.7-1.2-2 0-3.6 1.6-3.6 3.6 0 1.2.6 2.2 1.5 2.9 5 5.2 12 8.5 19.8 8.5 14.4 0 26.3-11.2 27.4-25.4v-.4c0-.6.1-1.1.1-1.7 0-.5 0-1-.1-1.5v-3.4zm98.2-86.3c-3.1 0-5.8 1.1-8 3.3-1.5 1.5-2.5 3.3-3 5.2h21.9c-.5-1.9-1.5-3.7-3-5.2-2.1-2.2-4.8-3.3-7.9-3.3z"/><path class="st0" d="M539.6 8.4c-30.6 0-55.4 24.8-55.4 55.4 0 30.6 24.8 55.4 55.4 55.4S595 94.4 595 63.8c0-30.6-24.8-55.4-55.4-55.4zm7.1 69.5c0 1.8-1.2 3.1-2.9 3.1h-.1c-.8 0-1.5-.3-2.1-.8-.4-.4-.9-1.1-.9-2.3V63c0-1.2 0-2.1-.1-2.9-.5-4-3.9-7-7.9-7h-.1c-3.3 0-5.8 1.6-7.3 4.6.3 1.2.4 2.4.4 3.6v16.6c0 1.8-1.2 3.1-2.9 3.1-.9 0-1.6-.3-2.1-.8-.4-.4-.9-1.1-.9-2.3V63c0-.8 0-1.8-.1-2.9-.1-.9-.4-1.9-.8-2.7-.1-.2-.2-.4-.3-.5l-.1-.1c-1.3-1.9-3.1-3.1-5.2-3.5-.2 0-.4-.1-.6-.1h-1.8c-.3 0-.5.1-.7.1-2.2.4-4 1.6-5.2 3.5l-.1.2c-.1.2-.2.3-.3.5-.5.9-.7 1.8-.9 2.7-.1 1-.1 2.1-.1 2.9v15c0 1.2-.5 1.9-.9 2.3-.5.5-1.3.8-2.1.8-1.7 0-2.9-1.3-2.9-3.1V61.6c0-4.2 1.8-7 1.8-7.1l.3-.5c1.7-2.8 4.4-4.9 7.6-5.9l.2-.1.9-.3.4-.1c.3-.1.5-.1.8-.1.2 0 .3 0 .5-.1.3 0 .5 0 .8-.1h1.8c.3 0 .5 0 .8.1.2 0 .3 0 .5.1.3.1.5.1.8.1.2 0 .4.1.6.2.3.1.4.1.6.2l.9.3.2.1c1.9.8 3.6 2 5 3.6 4.3-4.8 11.3-6.1 17.1-3 2.2 1.2 4.1 3 5.5 5.4.2.2 1.8 3 1.8 7.1l.1 16.4zM582.6 66h-25c.5 1.9 1.5 3.7 3 5.2 2.2 2.2 4.9 3.3 8 3.3 2.8 0 5.2-.9 7.3-2.7 1.1-.9 2.7-.8 3.7.2.5.5.8 1.2.8 2s-.3 1.4-.8 2c-3.1 2.7-6.8 4.1-11 4.1-4.6 0-8.6-1.7-11.9-4.9-3.3-3.3-4.9-7.3-4.9-11.9 0-4.6 1.7-8.6 4.9-11.9 3.3-3.3 7.3-4.9 11.9-4.9 4.6 0 8.6 1.7 11.9 4.9 3.3 3.3 4.9 7.3 4.9 11.9 0 .8-.3 1.4-.8 2-.5.4-1.2.7-2 .7z"/></svg>